<svg width="600" height="400" viewBox="0 0 600 400" xmlns="http://www.w3.org/2000/svg">
  <rect width="600" height="400" fill="#111827"/>

  <rect x="32" y="32" width="256" height="156" rx="20" fill="#2EAD33"/>
  <g transform="translate(132,48) scale(2.333)" fill="#ffffff">
    <path d="M23.996 7.462c-.056.837-.257 2.135-.716 3.85-.995 3.715-4.27 10.874-10.42 9.227-6.15-1.65-5.407-9.487-4.412-13.201.46-1.716.934-2.94 1.305-3.694.42-.853.846-.289 1.815.523.684.573 2.41 1.791 5.011 2.488 2.601.697 4.706.506 5.583.352 1.245-.219 1.897-.494 1.834.455Zm-9.807 3.863s-.127-1.819-1.773-2.286c-1.644-.467-2.613 1.04-2.613 1.04Zm4.058 4.539-7.769-2.172s.446 2.306 3.338 3.153c2.862.836 4.43-.98 4.43-.981Zm2.701-2.51s-.13-1.818-1.773-2.286c-1.644-.469-2.612 1.038-2.612 1.038ZM8.57 18.23c-4.749 1.279-7.261-4.224-8.021-7.08C.197 9.831.044 8.832.003 8.188c-.047-.73.455-.52 1.415-.354.677.118 2.3.261 4.308-.28a11.28 11.28 0 0 0 2.41-.956c-.058.197-.114.4-.17.61-.433 1.618-.827 4.055-.632 6.426-1.976.732-2.267 2.423-2.267 2.423l2.524-.715c.227 1.002.6 1.987 1.15 2.838a5.914 5.914 0 0 1-.171.049Zm-4.188-6.298c1.265-.333 1.363-1.631 1.363-1.631l-3.374.888s.745 1.076 2.01.743Z"/>
  </g>
  <text x="160" y="166" font-family="Arial, Helvetica, sans-serif" font-weight="700" font-size="20" fill="#ffffff" text-anchor="middle">Playwright</text>

  <rect x="312" y="32" width="256" height="156" rx="20" fill="#3178C6"/>
  <g transform="translate(412,48) scale(2.333)" fill="#ffffff">
    <path d="M1.125 0C.502 0 0 .502 0 1.125v21.75C0 23.498.502 24 1.125 24h21.75c.623 0 1.125-.502 1.125-1.125V1.125C24 .502 23.498 0 22.875 0zm17.363 9.75c.612 0 1.154.037 1.627.111a6.38 6.38 0 0 1 1.306.34v2.458a3.95 3.95 0 0 0-.643-.361 5.093 5.093 0 0 0-.717-.26 5.453 5.453 0 0 0-1.426-.2c-.3 0-.573.028-.819.086a2.1 2.1 0 0 0-.623.242c-.17.104-.3.229-.393.374a.888.888 0 0 0-.14.49c0 .196.053.373.156.529.104.156.252.304.443.444s.423.276.696.41c.273.135.582.274.926.416.47.197.892.407 1.266.628.374.222.695.473.963.753.268.279.472.598.614.957.142.359.214.776.214 1.253 0 .657-.125 1.21-.373 1.656a3.033 3.033 0 0 1-1.012 1.085 4.38 4.38 0 0 1-1.487.596c-.566.12-1.163.18-1.79.18a9.916 9.916 0 0 1-1.84-.164 5.544 5.544 0 0 1-1.512-.493v-2.63a5.033 5.033 0 0 0 3.237 1.2c.333 0 .624-.03.872-.09.249-.06.456-.144.623-.25.166-.108.29-.234.373-.38a1.023 1.023 0 0 0-.074-1.089 2.12 2.12 0 0 0-.537-.5 5.597 5.597 0 0 0-.807-.444 27.72 27.72 0 0 0-1.007-.436c-.918-.383-1.602-.852-2.053-1.405-.45-.553-.676-1.222-.676-2.005 0-.614.123-1.141.369-1.582.246-.441.58-.804 1.004-1.089a4.494 4.494 0 0 1 1.47-.629 7.536 7.536 0 0 1 1.77-.201zm-15.113.188h9.563v2.166H9.506v9.646H6.789v-9.646H3.375z"/>
  </g>
  <text x="440" y="166" font-family="Arial, Helvetica, sans-serif" font-weight="700" font-size="18" fill="#ffffff" text-anchor="middle">TypeScript</text>

  <rect x="32" y="212" width="256" height="156" rx="20" fill="#0EA5A4"/>
  <g transform="translate(132,228) scale(2.333)">
    <rect x="4" y="4" width="16" height="4" rx="2" fill="#ffffff"/>
    <rect x="4" y="10" width="16" height="4" rx="2" fill="#ffffff" opacity="0.75"/>
    <rect x="4" y="16" width="16" height="4" rx="2" fill="#ffffff" opacity="0.5"/>
  </g>
  <text x="160" y="346" font-family="Arial, Helvetica, sans-serif" font-weight="700" font-size="18" fill="#ffffff" text-anchor="middle">Page Model</text>

  <rect x="312" y="212" width="256" height="156" rx="20" fill="#334155"/>
  <g transform="translate(412,228) scale(2.333)">
    <circle cx="12" cy="12" r="9" fill="none" stroke="#ffffff" stroke-width="1.6"/>
    <path d="M7.5 12.5l3 3 6-6.5" fill="none" stroke="#ffffff" stroke-width="1.8" stroke-linecap="round" stroke-linejoin="round"/>
  </g>
  <text x="440" y="346" font-family="Arial, Helvetica, sans-serif" font-weight="700" font-size="18" fill="#ffffff" text-anchor="middle">E2E Tests</text>
</svg>
